<svg id="Calque_3" data-name="Calque 3" xmlns="http://www.w3.org/2000/svg" viewBox="0 0 559.76 520.88"><defs><style>.cls-1{fill:#8f5ef1;}.cls-2{fill:#1da12e;}.cls-3{fill:#0082e8;}.cls-4{fill:#ffdc00;}.cls-5{fill:#f14925;}</style></defs><g id="Line-Copy-3"><rect class="cls-1" x="4.72" y="151.8" width="199.36" height="12.96" transform="translate(-80.67 80.79) rotate(-39.75)"/></g><g id="Line-Copy-8"><rect class="cls-2" x="223.24" y="78.4" width="12.96" height="235.52" transform="matrix(0.88, -0.48, 0.48, 0.88, -69.71, 112.56)"/></g><g id="Line-Copy-36"><rect class="cls-3" x="246.81" y="209.94" width="241.17" height="12.96" transform="translate(-53.14 283.15) rotate(-42.59)"/></g><g id="Line-Copy-37"><rect class="cls-3" x="362.23" y="244.49" width="12.96" height="226.24" transform="matrix(0.6, -0.8, 0.8, 0.6, -142.17, 415.56)"/></g><g id="Line-Copy-11"><rect class="cls-1" x="164.49" y="319.82" width="12.96" height="226.79" transform="translate(-277 271.25) rotate(-51.05)"/></g><g id="Line-Copy-35"><rect class="cls-1" x="-14.75" y="224.95" width="292.89" height="12.96" transform="translate(-133.13 260.43) rotate(-71.52)"/></g><g id="Line-Copy-14"><rect class="cls-2" x="157.84" y="390.56" width="221.81" height="12.96" transform="translate(-165.62 584.91) rotate(-81.94)"/></g><g id="Oval"><circle class="cls-1" cx="84.24" cy="343.44" r="58.32"/></g><g id="Oval-Copy-16"><path class="cls-1" d="M32.74,188.72A29.16,29.16,0,1,1,3.59,217.88,29.15,29.15,0,0,1,32.74,188.72Z" transform="translate(-3.59 -22.56)"/></g><g id="Oval-Copy-21"><circle class="cls-2" cx="254.3" cy="500.08" r="43.36" transform="translate(-283.71 648.22) rotate(-80.76)"/></g><g id="Oval-Copy-14"><circle class="cls-4" cx="447.12" cy="116.64" r="64.8"/></g><g id="Oval-Copy-15"><path class="cls-2" d="M176.6,22.56a75.82,75.82,0,1,1-75.81,75.82A75.82,75.82,0,0,1,176.6,22.56Z" transform="translate(-3.59 -22.56)"/></g><g id="Oval-Copy-22"><path class="cls-3" d="M283.52,188.72a105,105,0,1,1-105,105A105,105,0,0,1,283.52,188.72Z" transform="translate(-3.59 -22.56)"/></g><g id="Oval-Copy-23"><path class="cls-5" d="M453.94,353a68,68,0,1,1-68,68A68,68,0,0,1,453.94,353Z" transform="translate(-3.59 -22.56)"/></g><g id="Oval-Copy-18"><path class="cls-4" d="M520,320.64A43.36,43.36,0,1,1,476.62,364,43.36,43.36,0,0,1,520,320.64Z" transform="translate(-3.59 -22.56)"/></g><g id="Oval-Copy-19"><path class="cls-4" d="M450.7,469.68a25.92,25.92,0,1,1-25.92,25.92A25.91,25.91,0,0,1,450.7,469.68Z" transform="translate(-3.59 -22.56)"/></g></svg>