<svg width="100" height="100" xmlns="http://www.w3.org/2000/svg" xml:space="preserve" enable-background="new 0 0 100 100" version="1.1" fill="#9cc5ee">
 <g>
  <path transform="rotate(-153.989, 50.0001, 49.9999)" id="svg_1" d="m74.65034,15.58786l5.47784,-9.41065l-7.30379,-4.21372l-5.33738,9.41065c-5.33738,-2.38778 -11.2366,-3.79235 -17.41672,-3.79235c-23.31594,0 -42.41815,18.96176 -42.41815,42.41815c0,14.1862 7.02287,26.68692 17.69764,34.41208l-5.47784,9.41065l7.30379,4.21372l5.33738,-9.41065c5.33738,2.38778 11.2366,3.79235 17.41672,3.79235c23.31594,0 42.41815,-18.96176 42.41815,-42.41815c0,-14.1862 -7.02287,-26.68692 -17.69764,-34.41208zm-58.71122,34.41208c0,-18.68084 15.1694,-33.9907 33.9907,-33.9907c4.6351,0 9.12973,0.9832 13.203,2.66869l-33.70979,58.28984c-8.14653,-6.18013 -13.48392,-15.87169 -13.48392,-26.96783zm33.9907,33.9907c-4.6351,0 -9.12973,-0.9832 -13.203,-2.66869l33.70979,-58.28984c8.14653,6.18013 13.48392,16.01215 13.48392,27.10829c0,18.54038 -15.30986,33.85025 -33.9907,33.85025z"/>
 </g>
</svg>
