<?xml version="1.0" encoding="UTF-8" standalone="no"?>
<!-- Created with Inkscape (http://www.inkscape.org/) -->

<svg
   version="1.1"
   id="svg2"
   width="392.58667"
   height="306.90668"
   viewBox="0 0 392.58667 306.90668"
   sodipodi:docname="Taboola_Icon_Dark_Blue.eps"
   xmlns:inkscape="http://www.inkscape.org/namespaces/inkscape"
   xmlns:sodipodi="http://sodipodi.sourceforge.net/DTD/sodipodi-0.dtd"
   xmlns="http://www.w3.org/2000/svg"
   xmlns:svg="http://www.w3.org/2000/svg">
  <defs
     id="defs6" />
  <sodipodi:namedview
     id="namedview4"
     pagecolor="#ffffff"
     bordercolor="#000000"
     borderopacity="0.25"
     inkscape:showpageshadow="2"
     inkscape:pageopacity="0.0"
     inkscape:pagecheckerboard="0"
     inkscape:deskcolor="#d1d1d1" />
  <g
     id="g8"
     inkscape:groupmode="layer"
     inkscape:label="ink_ext_XXXXXX"
     transform="matrix(1.3333333,0,0,-1.3333333,0,306.90667)">
    <g
       id="g10"
       transform="scale(0.1)">
      <path
         d="M 783.598,784.281 C 240.57,787.41 -2.42188,1148.1 0.0195313,1549.07 2.36719,1950.11 249.375,2305.01 792.391,2301.74 c 543.019,-3 786.029,-360.82 783.629,-761.86 -2.4,-400.91 -249.4,-758.732 -792.422,-755.599 m 6.535,1116.549 c -208.922,1.26 -237.961,-201.9 -238.875,-354.95 -0.824,-153.12 25.773,-359.42 234.605,-360.7 208.785,-1.12 237.947,204.66 238.857,357.96 0.89,153.16 -25.755,356.56 -234.587,357.69"
         style="fill:#1470bc;fill-opacity:1;fill-rule:nonzero;stroke:none"
         id="path12" />
      <path
         d="m 2151.82,784.219 c -542.89,3.261 -785.85,363.951 -783.46,764.911 2.23,400.91 249.35,755.94 792.29,752.68 542.97,-3.13 785.98,-360.95 783.72,-761.87 -2.4,-401.04 -249.54,-758.768 -792.55,-755.721 m 6.53,1116.681 c -208.8,1.26 -237.82,-201.91 -238.69,-355.08 -1.01,-153.13 25.63,-359.31 234.56,-360.57 208.65,-1.26 237.85,204.66 238.72,357.82 0.88,153.18 -25.8,356.69 -234.59,357.83"
         style="fill:#1470bc;fill-opacity:1;fill-rule:nonzero;stroke:none"
         id="path14" />
      <path
         d="M 206.801,784.199 C 598.266,609.309 1004.49,531.66 1447.1,529.129 c 464.98,-2.738 817.58,85.07 1263.96,255.07 l -2.6,-481.687 C 2308.94,104.379 1875.69,-2.44141 1443.95,0.0507813 973.457,2.83203 634.344,99.4609 203.891,302.512 l 2.91,481.687"
         style="fill:#1470bc;fill-opacity:1;fill-rule:nonzero;stroke:none"
         id="path16" />
    </g>
  </g>
</svg>
