<svg width="440" height="120" viewBox="0 0 440 120" fill="none" xmlns="http://www.w3.org/2000/svg">
<path d="M190.207 86L190.015 79.472C188.415 81.84 186.271 83.696 183.583 85.04C180.959 86.384 177.791 87.056 174.079 87.056C171.775 87.056 169.535 86.736 167.359 86.096C165.183 85.456 163.263 84.528 161.599 83.312C159.935 82.032 158.591 80.432 157.567 78.512C156.543 76.592 156.031 74.384 156.031 71.888C156.031 66.512 158.079 62.672 162.175 60.368C166.335 58.064 171.647 56.4 178.111 55.376L189.343 53.552V53.072C189.343 49.616 188.415 47.152 186.559 45.68C184.767 44.208 182.271 43.472 179.071 43.472C175.935 43.472 173.407 44.208 171.487 45.68C169.567 47.152 168.319 49.264 167.743 52.016H157.663C158.303 46.832 160.671 42.736 164.767 39.728C168.863 36.656 173.759 35.12 179.455 35.12C182.335 35.12 184.991 35.44 187.423 36.08C189.919 36.72 192.063 37.744 193.855 39.152C195.647 40.56 197.023 42.448 197.983 44.816C199.007 47.12 199.519 49.968 199.519 53.36L199.327 76.016C199.327 76.784 199.359 77.904 199.423 79.376C199.487 80.784 199.615 82.992 199.807 86H190.207ZM166.303 71.408C166.303 73.712 167.199 75.504 168.991 76.784C170.847 78 173.183 78.608 175.999 78.608C179.647 78.608 182.783 77.488 185.407 75.248C188.031 73.008 189.343 69.68 189.343 65.264V61.712C181.215 62.736 175.327 63.888 171.679 65.168C168.095 66.384 166.303 68.464 166.303 71.408Z" fill="black"/>
<path d="M229.332 87.056C225.876 87.056 222.644 86.448 219.636 85.232C216.628 83.952 214.004 82.192 211.764 79.952C209.588 77.648 207.86 74.864 206.58 71.6C205.3 68.336 204.66 64.72 204.66 60.752C204.66 57.04 205.3 53.616 206.58 50.48C207.924 47.28 209.716 44.56 211.956 42.32C214.196 40.08 216.82 38.32 219.828 37.04C222.9 35.76 226.132 35.12 229.524 35.12C232.34 35.12 235.06 35.568 237.684 36.464C240.372 37.36 242.74 38.64 244.788 40.304C246.836 41.904 248.532 43.856 249.876 46.16C251.22 48.464 252.02 50.992 252.276 53.744H242.004C241.3 50.8 239.764 48.496 237.396 46.832C235.028 45.104 232.372 44.24 229.428 44.24C225.268 44.24 221.876 45.808 219.252 48.944C216.628 52.08 215.316 56.016 215.316 60.752C215.316 65.68 216.66 69.776 219.348 73.04C222.036 76.304 225.396 77.936 229.428 77.936C232.308 77.936 234.9 77.136 237.204 75.536C239.572 73.872 241.172 71.472 242.004 68.336H252.276C251.892 71.28 250.964 73.936 249.492 76.304C248.084 78.608 246.324 80.56 244.212 82.16C242.164 83.76 239.828 84.976 237.204 85.808C234.644 86.64 232.02 87.056 229.332 87.056Z" fill="black"/>
<path d="M270.555 86C266.651 86 263.451 85.136 260.955 83.408C258.523 81.68 257.307 78.096 257.307 72.656V24.368H267.579V36.272H279.483V44.624H267.579V71.312C267.579 74 268.027 75.728 268.923 76.496C269.883 77.264 271.323 77.648 273.243 77.648H279.483V86H270.555Z" fill="black"/>
<path d="M284.384 27.824V16.88H294.944V27.824H284.384ZM284.48 86V36.272H294.848V86H284.48Z" fill="black"/>
<path d="M302.908 86V56.048C302.908 49.776 304.828 44.848 308.668 41.264C312.572 37.68 317.82 35.888 324.412 35.888H327.676V45.488H324.22C320.764 45.488 318.076 46.352 316.156 48.08C314.236 49.744 313.276 52.688 313.276 56.912V86H302.908Z" fill="black"/>
<path d="M330.659 27.824V16.88H341.219V27.824H330.659ZM330.755 86V36.272H341.123V86H330.755Z" fill="black"/>
<path d="M368.383 87.152C365.567 87.152 362.878 86.8 360.318 86.096C357.822 85.392 355.582 84.368 353.598 83.024C351.678 81.616 350.078 79.856 348.798 77.744C347.518 75.568 346.751 73.072 346.495 70.256H356.479C356.927 73.2 358.303 75.344 360.607 76.688C362.911 77.968 365.566 78.608 368.574 78.608C371.134 78.608 373.471 78.096 375.583 77.072C377.695 76.048 378.751 74.448 378.751 72.272C378.751 70.288 377.823 68.816 375.967 67.856C374.111 66.832 371.455 66 367.999 65.36L363.102 64.496C358.302 63.664 354.527 62.096 351.775 59.792C349.023 57.488 347.646 54.416 347.646 50.576C347.646 48.144 348.158 45.968 349.182 44.048C350.206 42.128 351.583 40.496 353.311 39.152C355.103 37.808 357.183 36.784 359.551 36.08C361.919 35.376 364.414 35.024 367.038 35.024C369.598 35.024 372.062 35.376 374.43 36.08C376.798 36.72 378.879 37.712 380.671 39.056C382.527 40.336 384.03 41.936 385.182 43.856C386.398 45.776 387.166 47.952 387.486 50.384H377.598C376.958 48.08 375.678 46.384 373.758 45.296C371.838 44.144 369.503 43.568 366.751 43.568C364.127 43.568 361.918 44.144 360.126 45.296C358.334 46.384 357.438 47.856 357.438 49.712C357.438 51.44 358.174 52.72 359.646 53.552C361.118 54.384 363.326 55.056 366.27 55.568L371.167 56.432C376.479 57.392 380.734 59.024 383.934 61.328C387.134 63.568 388.734 66.864 388.734 71.216C388.734 73.776 388.159 76.048 387.007 78.032C385.918 80.016 384.415 81.68 382.495 83.024C380.639 84.368 378.463 85.392 375.967 86.096C373.535 86.8 371.007 87.152 368.383 87.152Z" fill="black"/>
<path d="M439.402 71.792C438.634 74.416 437.45 76.72 435.85 78.704C434.25 80.624 432.394 82.192 430.282 83.408C428.234 84.624 425.994 85.52 423.562 86.096C421.13 86.736 418.698 87.056 416.266 87.056C412.81 87.056 409.546 86.448 406.474 85.232C403.402 84.016 400.714 82.288 398.41 80.048C396.106 77.808 394.282 75.056 392.938 71.792C391.594 68.528 390.922 64.848 390.922 60.752C390.922 56.848 391.594 53.328 392.938 50.192C394.346 46.992 396.17 44.272 398.41 42.032C400.714 39.792 403.338 38.096 406.282 36.944C409.29 35.728 412.394 35.12 415.594 35.12C418.794 35.12 421.866 35.696 424.81 36.848C427.754 37.936 430.314 39.6 432.49 41.84C434.73 44.016 436.522 46.8 437.866 50.192C439.21 53.584 439.882 57.488 439.882 61.904V64.304H401.578C402.026 68.592 403.69 71.984 406.57 74.48C409.45 76.976 412.778 78.224 416.554 78.224C419.05 78.224 421.45 77.744 423.754 76.784C426.058 75.824 427.818 74.16 429.034 71.792H439.402ZM415.402 43.856C411.882 43.856 408.778 44.944 406.09 47.12C403.466 49.296 401.93 52.272 401.482 56.048H429.034C428.778 52.4 427.37 49.456 424.81 47.216C422.25 44.976 419.114 43.856 415.402 43.856Z" fill="black"/>
<rect width="120" height="120" rx="32" fill="url(#paint0_radial_1623_2348)"/>
<g clip-path="url(#clip0_1623_2348)">
<path d="M55.7704 52.9037L28.9004 79.7737L40.2141 91.0875L67.0842 64.2174L55.7704 52.9037Z" fill="white"/>
<path d="M75.0938 91.095V44.845L91.0938 60.855V91.095H75.0938Z" fill="white"/>
<path d="M75.0943 44.905H28.9043V28.905H57.6543L75.0943 44.905Z" fill="white"/>
</g>
<defs>
<radialGradient id="paint0_radial_1623_2348" cx="0" cy="0" r="1" gradientUnits="userSpaceOnUse" gradientTransform="translate(14 109.5) rotate(-45.7402) scale(136.837 136.837)">
<stop stop-color="#0093FD"/>
<stop offset="0.270833" stop-color="#5B71FF"/>
<stop offset="0.526042" stop-color="#956EFF"/>
<stop offset="0.781817" stop-color="#F067D8"/>
<stop offset="1" stop-color="#FF7171"/>
</radialGradient>
<clipPath id="clip0_1623_2348">
<rect width="62.19" height="62.19" fill="white" transform="translate(28.9043 28.905)"/>
</clipPath>
</defs>
</svg>
