<svg width="487" height="120" viewBox="0 0 487 120" fill="none" xmlns="http://www.w3.org/2000/svg">
<path d="M183.68 48.624H172.256V90H162.08V48.624H153.344V40.272H162.08V34.704C162.08 29.328 163.424 25.648 166.112 23.664C168.8 21.68 172.352 20.688 176.768 20.688C178.112 20.688 179.328 20.72 180.416 20.784C181.504 20.784 182.592 20.816 183.68 20.88V29.328C182.912 29.264 182.048 29.232 181.088 29.232C180.192 29.168 179.296 29.136 178.4 29.136C176.608 29.136 175.136 29.52 173.984 30.288C172.832 30.992 172.256 32.624 172.256 35.184V40.272H183.68V48.624Z" fill="white"/>
<path d="M217.47 90L217.278 83.472C215.678 85.84 213.534 87.696 210.846 89.04C208.222 90.384 205.054 91.056 201.342 91.056C199.038 91.056 196.798 90.736 194.622 90.096C192.446 89.456 190.526 88.528 188.862 87.312C187.198 86.032 185.854 84.432 184.83 82.512C183.806 80.592 183.294 78.384 183.294 75.888C183.294 70.512 185.342 66.672 189.438 64.368C193.598 62.064 198.91 60.4 205.374 59.376L216.606 57.552V57.072C216.606 53.616 215.678 51.152 213.822 49.68C212.03 48.208 209.534 47.472 206.334 47.472C203.198 47.472 200.67 48.208 198.75 49.68C196.83 51.152 195.582 53.264 195.006 56.016H184.926C185.566 50.832 187.934 46.736 192.03 43.728C196.126 40.656 201.022 39.12 206.718 39.12C209.598 39.12 212.254 39.44 214.686 40.08C217.182 40.72 219.326 41.744 221.118 43.152C222.91 44.56 224.286 46.448 225.246 48.816C226.27 51.12 226.782 53.968 226.782 57.36L226.59 80.016C226.59 80.784 226.622 81.904 226.686 83.376C226.75 84.784 226.878 86.992 227.07 90H217.47ZM193.566 75.408C193.566 77.712 194.462 79.504 196.254 80.784C198.11 82 200.446 82.608 203.262 82.608C206.91 82.608 210.046 81.488 212.67 79.248C215.294 77.008 216.606 73.68 216.606 69.264V65.712C208.478 66.736 202.59 67.888 198.942 69.168C195.358 70.384 193.566 72.464 193.566 75.408Z" fill="white"/>
<path d="M253.427 91.152C250.611 91.152 247.923 90.8 245.363 90.096C242.867 89.392 240.627 88.368 238.643 87.024C236.723 85.616 235.123 83.856 233.843 81.744C232.563 79.568 231.795 77.072 231.539 74.256H241.523C241.971 77.2 243.347 79.344 245.651 80.688C247.955 81.968 250.611 82.608 253.619 82.608C256.179 82.608 258.515 82.096 260.627 81.072C262.739 80.048 263.795 78.448 263.795 76.272C263.795 74.288 262.867 72.816 261.011 71.856C259.155 70.832 256.499 70 253.043 69.36L248.147 68.496C243.347 67.664 239.571 66.096 236.819 63.792C234.067 61.488 232.691 58.416 232.691 54.576C232.691 52.144 233.203 49.968 234.227 48.048C235.251 46.128 236.627 44.496 238.355 43.152C240.147 41.808 242.227 40.784 244.595 40.08C246.963 39.376 249.459 39.024 252.083 39.024C254.643 39.024 257.107 39.376 259.475 40.08C261.843 40.72 263.923 41.712 265.715 43.056C267.571 44.336 269.075 45.936 270.227 47.856C271.443 49.776 272.211 51.952 272.531 54.384H262.643C262.003 52.08 260.723 50.384 258.803 49.296C256.883 48.144 254.547 47.568 251.795 47.568C249.171 47.568 246.963 48.144 245.171 49.296C243.379 50.384 242.483 51.856 242.483 53.712C242.483 55.44 243.219 56.72 244.691 57.552C246.163 58.384 248.371 59.056 251.315 59.568L256.211 60.432C261.523 61.392 265.779 63.024 268.979 65.328C272.179 67.568 273.779 70.864 273.779 75.216C273.779 77.776 273.203 80.048 272.051 82.032C270.963 84.016 269.459 85.68 267.539 87.024C265.683 88.368 263.507 89.392 261.011 90.096C258.579 90.8 256.051 91.152 253.427 91.152Z" fill="white"/>
<path d="M292.286 90C288.382 90 285.183 89.136 282.687 87.408C280.255 85.68 279.038 82.096 279.038 76.656V28.368H289.311V40.272H301.215V48.624H289.311V75.312C289.311 78 289.759 79.728 290.655 80.496C291.615 81.264 293.055 81.648 294.975 81.648H301.215V90H292.286Z" fill="white"/>
<path d="M327.62 91.056C324.164 91.056 320.932 90.448 317.924 89.232C314.916 87.952 312.292 86.192 310.052 83.952C307.876 81.648 306.148 78.864 304.868 75.6C303.588 72.336 302.948 68.72 302.948 64.752C302.948 61.04 303.588 57.616 304.868 54.48C306.212 51.28 308.004 48.56 310.244 46.32C312.484 44.08 315.108 42.32 318.116 41.04C321.188 39.76 324.42 39.12 327.812 39.12C330.628 39.12 333.348 39.568 335.972 40.464C338.66 41.36 341.028 42.64 343.076 44.304C345.124 45.904 346.82 47.856 348.164 50.16C349.508 52.464 350.308 54.992 350.564 57.744H340.292C339.588 54.8 338.052 52.496 335.684 50.832C333.316 49.104 330.66 48.24 327.716 48.24C323.556 48.24 320.164 49.808 317.54 52.944C314.916 56.08 313.604 60.016 313.604 64.752C313.604 69.68 314.948 73.776 317.636 77.04C320.324 80.304 323.684 81.936 327.716 81.936C330.596 81.936 333.188 81.136 335.492 79.536C337.86 77.872 339.46 75.472 340.292 72.336H350.564C350.18 75.28 349.252 77.936 347.78 80.304C346.372 82.608 344.612 84.56 342.5 86.16C340.452 87.76 338.116 88.976 335.492 89.808C332.932 90.64 330.308 91.056 327.62 91.056Z" fill="white"/>
<path d="M366.155 61.872V90H355.787V40.272H365.963V46.224C367.371 43.984 369.323 42.256 371.819 41.04C374.315 39.76 377.195 39.12 380.459 39.12C383.403 39.12 386.219 39.792 388.907 41.136C391.595 42.416 393.739 44.528 395.339 47.472C397.003 44.72 399.243 42.64 402.059 41.232C404.875 39.824 407.979 39.12 411.371 39.12C413.803 39.12 416.107 39.472 418.283 40.176C420.523 40.88 422.443 42 424.043 43.536C425.707 45.008 427.019 46.992 427.979 49.488C429.003 51.92 429.515 54.864 429.515 58.32V90H419.147V59.76C419.147 55.92 418.155 53.04 416.171 51.12C414.251 49.136 411.819 48.144 408.875 48.144C405.995 48.144 403.435 49.328 401.195 51.696C398.955 54 397.835 57.392 397.835 61.872V90H387.467V59.76C387.467 55.92 386.475 53.04 384.491 51.12C382.571 49.136 380.139 48.144 377.195 48.144C374.315 48.144 371.755 49.296 369.515 51.6C367.275 53.904 366.155 57.328 366.155 61.872Z" fill="white"/>
<path d="M463.717 91.056C460.133 91.056 456.997 90.352 454.309 88.944C451.685 87.472 449.669 85.648 448.261 83.472V108.24H437.893V40.272H448.261V46.608C449.541 44.624 451.493 42.896 454.117 41.424C456.805 39.888 460.069 39.12 463.909 39.12C467.045 39.12 469.989 39.696 472.741 40.848C475.557 41.936 477.989 43.568 480.037 45.744C482.149 47.856 483.813 50.512 485.029 53.712C486.245 56.912 486.853 60.592 486.853 64.752C486.853 68.976 486.213 72.752 484.933 76.08C483.717 79.344 482.053 82.096 479.941 84.336C477.829 86.512 475.365 88.176 472.549 89.328C469.797 90.48 466.853 91.056 463.717 91.056ZM462.181 82.224C466.021 82.224 469.285 80.72 471.973 77.712C474.725 74.64 476.101 70.32 476.101 64.752C476.101 59.312 474.725 55.152 471.973 52.272C469.285 49.392 466.021 47.952 462.181 47.952C458.085 47.952 454.693 49.456 452.005 52.464C449.381 55.472 448.069 59.568 448.069 64.752C448.069 70.192 449.445 74.48 452.197 77.616C454.949 80.688 458.277 82.224 462.181 82.224Z" fill="white"/>
<rect width="120" height="120" rx="32" fill="url(#paint0_radial_1623_2335)"/>
<path d="M101.569 28H83.0989L55.3789 76H73.8589L101.569 28Z" fill="white"/>
<path d="M64.6197 92L36.9097 44H18.4297L46.1497 92H64.6197Z" fill="white"/>
<defs>
<radialGradient id="paint0_radial_1623_2335" cx="0" cy="0" r="1" gradientUnits="userSpaceOnUse" gradientTransform="translate(10.7813 120) rotate(-47.6929) scale(162.261 147.683)">
<stop stop-color="#4747FF"/>
<stop offset="0.5" stop-color="#33BBFF"/>
<stop offset="1" stop-color="#00E4F5"/>
</radialGradient>
</defs>
</svg>
